<svg width="22" height="23" viewBox="0 0 22 23" fill="none" xmlns="http://www.w3.org/2000/svg">
<path d="M8 10.2221L11.7778 13.9999M6.97488 19.9748C5.60804 21.3416 3.00003 20.9999 1.00003 20.9999C2.02513 18.9999 0.658296 16.3919 2.02513 15.0251C3.39197 13.6582 5.60804 13.6582 6.97488 15.0251C8.34171 16.3919 8.34171 18.608 6.97488 19.9748ZM10.9216 14.9245L20.0587 5.05647C20.8635 4.1873 20.8376 2.83752 20 1.99993C19.1624 1.16234 17.8126 1.13639 16.9434 1.94117L7.07537 11.0783C6.56543 11.5504 6.31046 11.7865 6.16176 12.0383C5.80517 12.6421 5.79082 13.3885 6.12394 14.0055C6.26286 14.2628 6.50856 14.5085 6.99998 14.9999C7.49139 15.4913 7.7371 15.737 7.99441 15.876C8.61143 16.2091 9.35784 16.1947 9.96161 15.8381C10.2134 15.6894 10.4495 15.4345 10.9216 14.9245Z" stroke="black" stroke-width="2" stroke-linecap="round" stroke-linejoin="round"/>
</svg>
